<?xml version="1.0" encoding="utf-8"?>
<!-- Generator: Adobe Illustrator 25.2.1, SVG Export Plug-In . SVG Version: 6.00 Build 0)  -->
<svg version="1.1" id="Calque_1" xmlns="http://www.w3.org/2000/svg" xmlns:xlink="http://www.w3.org/1999/xlink" x="0px" y="0px"
	 viewBox="0 0 64 64" style="enable-background:new 0 0 64 64;" xml:space="preserve">
<style type="text/css">
	.st0{fill:url(#SVGID_1_);}
	.st1{fill:url(#SVGID_2_);}
</style>
<g>
	<linearGradient id="SVGID_1_" gradientUnits="userSpaceOnUse" x1="-0.4133" y1="22.9864" x2="51.3006" y2="62.8122">
		<stop  offset="0" style="stop-color:#048ABF"/>
		<stop  offset="1" style="stop-color:#04BFBF"/>
	</linearGradient>
	<path class="st0" d="M23,38c-1.7,0-3,1.3-3,3s1.3,3,3,3s3-1.3,3-3c0-0.5-0.1-0.9-0.3-1.3C25.2,38.7,24.2,38,23,38z"/>
	<linearGradient id="SVGID_2_" gradientUnits="userSpaceOnUse" x1="5.8293" y1="12.5051" x2="57.6883" y2="51.1356">
		<stop  offset="0" style="stop-color:#048ABF"/>
		<stop  offset="1" style="stop-color:#04BFBF"/>
	</linearGradient>
	<path class="st1" d="M32,0C14.3,0,0,14.3,0,32s14.3,32,32,32s32-14.3,32-32S49.7,0,32,0z M47.9,20.8c0,0.5-0.3,0.9-0.8,1l-3,0.7
		L44,27.1c0,0.5-0.4,1-0.9,1l-3.8,0.3l0.1,3.8c0,0.5-0.3,0.9-0.7,1l-3.4,1.2c0.4,0.9,0.7,2,0.7,3.6c0,5.5-4.5,10-10,10
		s-10-4.5-10-10s4.5-10,10-10c0.7,0,1.8,0.2,2.5,0.4l13.8-12.2c0.2-0.1,0.5-0.2,0.7-0.2h4c0.6,0,1,0.4,0.9,0.8
		C47.9,16.8,47.9,20.8,47.9,20.8z"/>
</g>
<g id="Layer_2">
</g>
</svg>
