<?xml version="1.0" encoding="utf-8"?>
<!-- Generator: Adobe Illustrator 25.2.1, SVG Export Plug-In . SVG Version: 6.00 Build 0)  -->
<svg version="1.1" id="Calque_1" focusable="false" xmlns="http://www.w3.org/2000/svg" xmlns:xlink="http://www.w3.org/1999/xlink"
	 x="0px" y="0px" viewBox="0 0 448 448" style="enable-background:new 0 0 448 448;" xml:space="preserve">
<style type="text/css">
	.st0{fill:#FFFFFF;}
</style>
<path class="st0" d="M309.1,272.7l-51.5-49.4l49.4-51.5c6.1-6.3,5.9-16.4-0.5-22.4l-11.4-11c-6.3-6.1-16.4-5.9-22.4,0.5l-49.4,51.5
	L171.8,141c-6.3-6.1-16.4-5.9-22.4,0.5l-11,11.4c-6.1,6.3-5.9,16.4,0.5,22.4l51.5,49.4L141,276.2c-6.1,6.3-5.9,16.4,0.5,22.4
	l11.4,11c6.3,6.1,16.4,5.9,22.4-0.5l49.4-51.5l51.5,49.4c6.3,6.1,16.4,5.9,22.4-0.5l11-11.4C315.7,288.8,315.5,278.7,309.1,272.7z"
	/>
</svg>
