<?xml version="1.0" encoding="utf-8"?>
<!-- Generator: Adobe Illustrator 25.2.1, SVG Export Plug-In . SVG Version: 6.00 Build 0)  -->
<svg version="1.1" id="Calque_1" focusable="false" xmlns="http://www.w3.org/2000/svg" xmlns:xlink="http://www.w3.org/1999/xlink"
	 x="0px" y="0px" viewBox="0 0 477.4 477.4" style="enable-background:new 0 0 477.4 477.4;" xml:space="preserve">
<style type="text/css">
	.st0{fill:#00B1FF;}
	.st1{fill:#FFFFFF;}
</style>
<circle class="st0" cx="238.7" cy="238.7" r="238.7"/>
<path class="st1" d="M381,281.6c1.2-6.6,1.2-13.4,0-20l12.1-7c1.4-0.8,2-2.4,1.5-4c-3.1-10.1-8.5-19.3-15.6-26.9
	c-1.1-1.2-2.8-1.5-4.2-0.7l-12.1,7c-5.1-4.4-11-7.7-17.3-10v-14c0-1.6-1.1-3-2.7-3.3c-10.5-2.3-21.1-2.3-31,0
	c-1.5,0.3-2.7,1.7-2.7,3.3v14c-6.3,2.3-12.2,5.6-17.3,10l-12.1-7c-1.4-0.8-3.1-0.5-4.2,0.7c-7,7.6-12.4,16.8-15.6,26.9
	c-0.5,1.5,0.2,3.2,1.5,4l12.1,7c-1.2,6.6-1.2,13.4,0,20l-12.1,7c-1.4,0.8-2,2.4-1.5,4c3.1,10.1,8.5,19.3,15.6,26.9
	c1.1,1.2,2.8,1.5,4.2,0.7l12.1-7c5.1,4.4,11,7.7,17.3,10v14c0,1.6,1.1,3,2.7,3.3c10.5,2.3,21.1,2.3,31,0c1.5-0.3,2.7-1.7,2.7-3.3
	v-14c6.3-2.3,12.2-5.6,17.3-10l12.1,7c1.4,0.8,3.1,0.5,4.2-0.7c7-7.6,12.4-16.8,15.6-26.9c0.5-1.5-0.2-3.2-1.5-4L381,281.6z
	 M327.4,294.4c-12.6,0-22.7-10.2-22.7-22.7c0-12.5,10.2-22.7,22.7-22.7c12.5,0,22.7,10.2,22.7,22.7
	C350.1,284.1,339.9,294.4,327.4,294.4z M199.8,226.6c33.1,0,60-26.9,60-60s-26.9-60-60-60s-60,26.9-60,60S166.7,226.6,199.8,226.6z
	 M294.2,332.8c-1.1-0.6-2.2-1.2-3.2-1.8l-3.7,2.2c-2.8,1.6-6,2.5-9.2,2.5c-5.1,0-10-2.2-13.5-5.9c-8.6-9.3-15.1-20.6-18.8-32.6
	c-2.6-8.3,0.9-17.1,8.4-21.4l3.7-2.2c0-1.2,0-2.4,0-3.7l-3.7-2.2c-7.5-4.3-11-13.1-8.4-21.4c0.4-1.4,1-2.7,1.5-4.1
	c-1.8-0.1-3.5-0.6-5.3-0.6H234c-10.4,4.8-22,7.5-34.2,7.5c-12.2,0-23.7-2.7-34.2-7.5h-7.8c-34.8,0-63,28.2-63,63v19.5
	c0,12.4,10.1,22.5,22.5,22.5h165c4.7,0,9.1-1.5,12.8-4c-0.6-1.8-0.9-3.6-0.9-5.5V332.8z"/>
</svg>
