<?xml version="1.0" encoding="utf-8"?>
<!-- Generator: Adobe Illustrator 25.2.1, SVG Export Plug-In . SVG Version: 6.00 Build 0)  -->
<svg version="1.1" id="Calque_1" xmlns="http://www.w3.org/2000/svg" xmlns:xlink="http://www.w3.org/1999/xlink" x="0px" y="0px"
	 viewBox="0 0 496 512" style="enable-background:new 0 0 496 512;" xml:space="preserve">
<style type="text/css">
	.st0{fill:url(#SVGID_1_);}
</style>
<linearGradient id="SVGID_1_" gradientUnits="userSpaceOnUse" x1="68.7348" y1="86.7291" x2="429.3952" y2="427.2821">
	<stop  offset="0" style="stop-color:#048ABF"/>
	<stop  offset="1" style="stop-color:#04BFBF"/>
</linearGradient>
<path class="st0" d="M248,8C111,8,0,119,0,256s111,248,248,248s248-111,248-248S385,8,248,8z M248,104c48.6,0,88,39.4,88,88
	s-39.4,88-88,88s-88-39.4-88-88S199.4,104,248,104z M248,448c-58.7,0-111.3-26.6-146.5-68.2c18.8-35.4,55.6-59.8,98.5-59.8
	c2.4,0,4.8,0.4,7.1,1.1c13,4.2,26.6,6.9,40.9,6.9s28-2.7,40.9-6.9c2.3-0.7,4.7-1.1,7.1-1.1c42.9,0,79.7,24.4,98.5,59.8
	C359.3,421.4,306.7,448,248,448z"/>
</svg>
